<?xml version="1.0" encoding="UTF-8" standalone="no"?>
<svg
   viewBox="35 5 2701.7539 1000"
   width="2701.7539"
   height="1000"
   version="1.1"
   id="svg7"
   sodipodi:docname="logonia-shapes.svg"
   inkscape:version="1.4.2 (ebf0e940d0, 2025-05-08)"
   inkscape:export-filename="logonia-shapes.png"
   inkscape:export-xdpi="35.532475"
   inkscape:export-ydpi="35.532475"
   xmlns:inkscape="http://www.inkscape.org/namespaces/inkscape"
   xmlns:sodipodi="http://sodipodi.sourceforge.net/DTD/sodipodi-0.dtd"
   xmlns="http://www.w3.org/2000/svg"
   xmlns:svg="http://www.w3.org/2000/svg"
   xmlns:rdf="http://www.w3.org/1999/02/22-rdf-syntax-ns#"
   xmlns:cc="http://creativecommons.org/ns#"
   xmlns:dc="http://purl.org/dc/elements/1.1/">
  <defs
     id="defs7" />
  <sodipodi:namedview
     id="namedview7"
     pagecolor="#ffffff"
     bordercolor="#000000"
     borderopacity="0.25"
     inkscape:showpageshadow="2"
     inkscape:pageopacity="0.0"
     inkscape:pagecheckerboard="0"
     inkscape:deskcolor="#d1d1d1"
     showguides="true"
     inkscape:zoom="0.325"
     inkscape:cx="1344.6154"
     inkscape:cy="518.46154"
     inkscape:window-width="1920"
     inkscape:window-height="1011"
     inkscape:window-x="0"
     inkscape:window-y="0"
     inkscape:window-maximized="1"
     inkscape:current-layer="svg7">
    <sodipodi:guide
       position="360.07681,736.8421"
       orientation="0,-1"
       id="guide9"
       inkscape:locked="false" />
    <sodipodi:guide
       position="421.05262,52.631584"
       orientation="0,-1"
       id="guide10"
       inkscape:locked="false" />
    <sodipodi:guide
       position="421.05262,157.89474"
       orientation="0,-1"
       id="guide11"
       inkscape:locked="false" />
    <sodipodi:guide
       position="421.05262,315.78948"
       orientation="0,-1"
       id="guide12"
       inkscape:locked="false" />
    <sodipodi:guide
       position="421.05262,421.05264"
       orientation="0,-1"
       id="guide13"
       inkscape:locked="false" />
    <sodipodi:guide
       position="421.05262,578.94737"
       orientation="0,-1"
       id="guide14"
       inkscape:locked="false" />
    <sodipodi:guide
       position="421.05262,684.21053"
       orientation="0,-1"
       id="guide15"
       inkscape:locked="false" />
    <sodipodi:guide
       position="464.86109,894.73684"
       orientation="0,-1"
       id="guide16"
       inkscape:locked="false" />
    <sodipodi:guide
       position="157.89472,842.10526"
       orientation="0,-1"
       id="guide2"
       inkscape:locked="false" />
    <sodipodi:guide
       position="-1.45e-05,368.42105"
       orientation="0,-1"
       id="guide3"
       inkscape:locked="false" />
    <sodipodi:guide
       position="-1.45e-05,631.57895"
       orientation="0,-1"
       id="guide4"
       inkscape:locked="false" />
  </sodipodi:namedview>
  <title
     id="title1">plant</title>
  <metadata
     id="metadata7">
    <rdf:RDF>
      <cc:Work
         rdf:about="">
        <dc:title>plant</dc:title>
        <cc:license
           rdf:resource="http://creativecommons.org/publicdomain/zero/1.0/" />
      </cc:Work>
      <cc:License
         rdf:about="http://creativecommons.org/publicdomain/zero/1.0/">
        <cc:permits
           rdf:resource="http://creativecommons.org/ns#Reproduction" />
        <cc:permits
           rdf:resource="http://creativecommons.org/ns#Distribution" />
        <cc:permits
           rdf:resource="http://creativecommons.org/ns#DerivativeWorks" />
      </cc:License>
    </rdf:RDF>
  </metadata>
  <path
     id="rect1"
     style="fill:#52a537;fill-opacity:1;stroke:none;stroke-width:3.50877"
     inkscape:label="Adult"
     d="m 2368.3339,5 -105.2636,105.26367 52.6308,157.89453 v 52.63086 l -157.8945,-157.89453 -157.8945,-52.63086 105.2636,210.52539 210.5254,105.26367 v 157.89454 l -157.8945,-157.89454 -157.8945,-52.63085 105.2636,210.52539 210.5254,105.26367 v 157.89453 l -157.8945,-157.89453 -157.8945,-52.63282 105.2636,210.52735 210.5254,105.26367 V 1005 h 105.2637 v -52.63086 l 210.5254,-105.26367 105.2637,-210.52735 -157.8946,52.63282 -157.8945,157.89453 V 689.21094 l 210.5254,-105.26367 105.2637,-210.52539 -157.8946,52.63085 -157.8945,157.89454 V 426.05273 l 210.5254,-105.26367 105.2637,-210.52539 -157.8946,52.63086 -157.8945,157.89453 V 268.1582 l 52.6309,-157.89453 z" />
  <path
     id="rect1-6"
     style="fill:#57af3a;fill-opacity:1;stroke:none;stroke-width:2.81327"
     inkscape:label="Juvenile"
     d="m 1385.877,268.1582 -105.2637,105.26368 52.6328,157.89453 v 52.63086 l -157.8945,-157.89454 -157.8965,-52.63085 105.2637,210.52539 210.5273,105.26367 v 157.89453 l -157.8945,-157.89453 -157.8965,-52.63282 105.2637,210.52735 210.5273,105.26367 V 1005 h 105.2617 v -52.63086 l 210.5274,-105.26367 105.2636,-210.52735 -157.8945,52.63282 -157.8965,157.89453 V 689.21094 l 210.5274,-105.26367 105.2636,-210.52539 -157.8945,52.63085 -157.8965,157.89454 v -52.63086 l 52.6328,-157.89453 z" />
  <path
     id="rect1-9"
     style="fill:#2cd13b;fill-opacity:1;stroke:none;stroke-width:1.87551"
     inkscape:label="Seedling"
     d="m 403.42188,531.31641 -105.26367,105.26171 52.63086,157.89649 v 52.63086 L 192.89453,689.21094 35,636.57812 140.26367,847.10547 350.78907,952.36914 V 1005 H 456.05274 V 952.36914 L 666.57813,847.10547 771.8418,636.57812 613.94727,689.21094 456.05274,847.10547 V 794.47461 L 508.6836,636.57812 Z" />
</svg>
