<?xml version="1.0" encoding="UTF-8" standalone="no"?>
<svg
   viewBox="35 5 736.84198 1000"
   width="736.84198"
   height="1000"
   version="1.1"
   id="svg7"
   sodipodi:docname="logonia-adult.svg"
   inkscape:version="1.4.2 (ebf0e940d0, 2025-05-08)"
   xmlns:inkscape="http://www.inkscape.org/namespaces/inkscape"
   xmlns:sodipodi="http://sodipodi.sourceforge.net/DTD/sodipodi-0.dtd"
   xmlns="http://www.w3.org/2000/svg"
   xmlns:svg="http://www.w3.org/2000/svg"
   xmlns:rdf="http://www.w3.org/1999/02/22-rdf-syntax-ns#"
   xmlns:cc="http://creativecommons.org/ns#"
   xmlns:dc="http://purl.org/dc/elements/1.1/">
  <defs
     id="defs7" />
  <sodipodi:namedview
     id="namedview7"
     pagecolor="#ffffff"
     bordercolor="#000000"
     borderopacity="0.25"
     inkscape:showpageshadow="2"
     inkscape:pageopacity="0.0"
     inkscape:pagecheckerboard="0"
     inkscape:deskcolor="#d1d1d1"
     showguides="true"
     inkscape:zoom="0.65"
     inkscape:cx="480"
     inkscape:cy="513.07692"
     inkscape:window-width="1920"
     inkscape:window-height="1011"
     inkscape:window-x="0"
     inkscape:window-y="0"
     inkscape:window-maximized="1"
     inkscape:current-layer="svg7">
    <sodipodi:guide
       position="315.78946,565.33654"
       orientation="1,0"
       id="guide7"
       inkscape:locked="false" />
    <sodipodi:guide
       position="421.05262,563.97836"
       orientation="1,0"
       id="guide8"
       inkscape:locked="false" />
    <sodipodi:guide
       position="360.07681,736.8421"
       orientation="0,-1"
       id="guide9"
       inkscape:locked="false" />
    <sodipodi:guide
       position="421.05262,52.631584"
       orientation="0,-1"
       id="guide10"
       inkscape:locked="false" />
    <sodipodi:guide
       position="421.05262,157.89474"
       orientation="0,-1"
       id="guide11"
       inkscape:locked="false" />
    <sodipodi:guide
       position="421.05262,315.78948"
       orientation="0,-1"
       id="guide12"
       inkscape:locked="false" />
    <sodipodi:guide
       position="421.05262,421.05264"
       orientation="0,-1"
       id="guide13"
       inkscape:locked="false" />
    <sodipodi:guide
       position="421.05262,578.94737"
       orientation="0,-1"
       id="guide14"
       inkscape:locked="false" />
    <sodipodi:guide
       position="421.05262,684.21053"
       orientation="0,-1"
       id="guide15"
       inkscape:locked="false" />
    <sodipodi:guide
       position="464.86109,894.73684"
       orientation="0,-1"
       id="guide16"
       inkscape:locked="false" />
    <sodipodi:guide
       position="263.15789,885.16845"
       orientation="1,0"
       id="guide17"
       inkscape:locked="false" />
    <sodipodi:guide
       position="473.6842,877.60339"
       orientation="1,0"
       id="guide18"
       inkscape:locked="false" />
    <sodipodi:guide
       position="368.42105,1000"
       orientation="1,0"
       id="guide1"
       inkscape:locked="false" />
    <sodipodi:guide
       position="157.89472,842.10526"
       orientation="0,-1"
       id="guide2"
       inkscape:locked="false" />
    <sodipodi:guide
       position="-1.45e-05,368.42105"
       orientation="0,-1"
       id="guide3"
       inkscape:locked="false" />
    <sodipodi:guide
       position="-1.45e-05,631.57895"
       orientation="0,-1"
       id="guide4"
       inkscape:locked="false" />
  </sodipodi:namedview>
  <title
     id="title1">plant</title>
  <metadata
     id="metadata7">
    <rdf:RDF>
      <cc:Work
         rdf:about="">
        <dc:title>plant</dc:title>
        <cc:license
           rdf:resource="http://creativecommons.org/publicdomain/zero/1.0/" />
      </cc:Work>
      <cc:License
         rdf:about="http://creativecommons.org/publicdomain/zero/1.0/">
        <cc:permits
           rdf:resource="http://creativecommons.org/ns#Reproduction" />
        <cc:permits
           rdf:resource="http://creativecommons.org/ns#Distribution" />
        <cc:permits
           rdf:resource="http://creativecommons.org/ns#DerivativeWorks" />
      </cc:License>
    </rdf:RDF>
  </metadata>
  <g
     id="g1"
     inkscape:label="Editable"
     style="display:none"
     sodipodi:insensitive="true">
    <rect
       x="350.78946"
       y="268.1579"
       width="105.26316"
       height="736.8421"
       id="rect1"
       style="fill:#000000;fill-opacity:1;stroke:none;stroke-width:3.50877"
       inkscape:label="Stem" />
    <polygon
       points="135,105 90,60 45,45 75,105 135,135 "
       id="polygon5-6-6-2"
       style="fill:#000000;fill-opacity:1;stroke:none"
       transform="matrix(-3.5087719,0,0,3.5087719,929.73683,478.68421)"
       inkscape:label="Branch 6" />
    <polygon
       points="135,135 135,105 90,60 45,45 75,105 "
       id="polygon5-5-1"
       style="fill:#000000;fill-opacity:1;stroke:none"
       transform="matrix(3.5087719,0,0,3.5087719,-122.89475,478.68421)"
       inkscape:label="Branch 5" />
    <polygon
       points="45,45 75,105 135,135 135,105 90,60 "
       id="polygon5-6-6"
       style="fill:#000000;fill-opacity:1;stroke:none"
       transform="matrix(-3.5087719,0,0,3.5087719,929.73683,215.52631)"
       inkscape:label="Branch 4" />
    <polygon
       points="90,60 45,45 75,105 135,135 135,105 "
       id="polygon5-5"
       style="fill:#000000;fill-opacity:1;stroke:none"
       transform="matrix(3.5087719,0,0,3.5087719,-122.89475,215.52631)"
       inkscape:label="Branch 3" />
    <polygon
       points="135,135 135,105 90,60 45,45 75,105 "
       id="polygon5-6"
       style="fill:#000000;fill-opacity:1;stroke:none"
       transform="matrix(-3.5087719,0,0,3.5087719,929.73683,-47.631579)"
       inkscape:label="Branch 2" />
    <polygon
       points="75,105 135,135 135,105 90,60 45,45 "
       id="polygon5"
       style="fill:#000000;fill-opacity:1;stroke:none"
       transform="matrix(3.5087719,0,0,3.5087719,-122.89475,-47.631579)"
       inkscape:label="Branch 1" />
    <polygon
       points="150,15 180,45 165,90 135,90 120,45 "
       id="polygon7"
       style="fill:#000000;fill-opacity:1;stroke:none"
       transform="matrix(3.5087719,0,0,3.5087719,-122.89474,-47.631579)"
       inkscape:label="Bud" />
  </g>
  <path
     id="rect1-7"
     style="fill:#000000;fill-opacity:1;stroke:none;stroke-width:3.50877"
     inkscape:label="Merged"
     d="M 403.42188,5 298.1582,110.26367 350.78906,268.1582 v 52.63086 L 192.89453,162.89453 35,110.26367 140.26367,320.78906 350.78906,426.05273 V 583.94727 L 192.89453,426.05273 35,373.42188 140.26367,583.94727 350.78906,689.21094 V 847.10547 L 192.89453,689.21094 35,636.57812 140.26367,847.10547 350.78906,952.36914 V 1005 H 456.05273 V 952.36914 L 666.57812,847.10547 771.8418,636.57812 613.94727,689.21094 456.05273,847.10547 V 689.21094 L 666.57812,583.94727 771.8418,373.42188 613.94727,426.05273 456.05273,583.94727 V 426.05273 L 666.57812,320.78906 771.8418,110.26367 613.94727,162.89453 456.05273,320.78906 V 268.1582 l 52.63086,-157.89453 z"
     sodipodi:insensitive="true" />
</svg>
