<?xml version="1.0" encoding="UTF-8" standalone="no"?>
<svg
   viewBox="35 5 2701.7539 1000"
   width="2701.7539"
   height="1000"
   version="1.1"
   id="svg7"
   sodipodi:docname="logonia-aging.svg"
   inkscape:version="1.4.2 (ebf0e940d0, 2025-05-08)"
   inkscape:export-filename="logonia-aging.png"
   inkscape:export-xdpi="96"
   inkscape:export-ydpi="96"
   xmlns:inkscape="http://www.inkscape.org/namespaces/inkscape"
   xmlns:sodipodi="http://sodipodi.sourceforge.net/DTD/sodipodi-0.dtd"
   xmlns="http://www.w3.org/2000/svg"
   xmlns:svg="http://www.w3.org/2000/svg"
   xmlns:rdf="http://www.w3.org/1999/02/22-rdf-syntax-ns#"
   xmlns:cc="http://creativecommons.org/ns#"
   xmlns:dc="http://purl.org/dc/elements/1.1/">
  <defs
     id="defs7" />
  <sodipodi:namedview
     id="namedview7"
     pagecolor="#ffffff"
     bordercolor="#000000"
     borderopacity="0.25"
     inkscape:showpageshadow="2"
     inkscape:pageopacity="0.0"
     inkscape:pagecheckerboard="0"
     inkscape:deskcolor="#d1d1d1"
     showguides="true"
     inkscape:zoom="0.2298097"
     inkscape:cx="1322.8336"
     inkscape:cy="731.03963"
     inkscape:window-width="1920"
     inkscape:window-height="1011"
     inkscape:window-x="0"
     inkscape:window-y="0"
     inkscape:window-maximized="1"
     inkscape:current-layer="svg7">
    <sodipodi:guide
       position="360.07681,736.8421"
       orientation="0,-1"
       id="guide9"
       inkscape:locked="false" />
    <sodipodi:guide
       position="421.05262,52.631584"
       orientation="0,-1"
       id="guide10"
       inkscape:locked="false" />
    <sodipodi:guide
       position="421.05262,157.89474"
       orientation="0,-1"
       id="guide11"
       inkscape:locked="false" />
    <sodipodi:guide
       position="421.05262,315.78948"
       orientation="0,-1"
       id="guide12"
       inkscape:locked="false" />
    <sodipodi:guide
       position="421.05262,421.05264"
       orientation="0,-1"
       id="guide13"
       inkscape:locked="false" />
    <sodipodi:guide
       position="421.05262,578.94737"
       orientation="0,-1"
       id="guide14"
       inkscape:locked="false" />
    <sodipodi:guide
       position="421.05262,684.21053"
       orientation="0,-1"
       id="guide15"
       inkscape:locked="false" />
    <sodipodi:guide
       position="464.86109,894.73684"
       orientation="0,-1"
       id="guide16"
       inkscape:locked="false" />
    <sodipodi:guide
       position="157.89472,842.10526"
       orientation="0,-1"
       id="guide2"
       inkscape:locked="false" />
    <sodipodi:guide
       position="-1.45e-05,368.42105"
       orientation="0,-1"
       id="guide3"
       inkscape:locked="false" />
    <sodipodi:guide
       position="-1.45e-05,631.57895"
       orientation="0,-1"
       id="guide4"
       inkscape:locked="false" />
  </sodipodi:namedview>
  <title
     id="title1">plant</title>
  <metadata
     id="metadata7">
    <rdf:RDF>
      <cc:Work
         rdf:about="">
        <dc:title>plant</dc:title>
        <cc:license
           rdf:resource="http://creativecommons.org/publicdomain/zero/1.0/" />
      </cc:Work>
      <cc:License
         rdf:about="http://creativecommons.org/publicdomain/zero/1.0/">
        <cc:permits
           rdf:resource="http://creativecommons.org/ns#Reproduction" />
        <cc:permits
           rdf:resource="http://creativecommons.org/ns#Distribution" />
        <cc:permits
           rdf:resource="http://creativecommons.org/ns#DerivativeWorks" />
      </cc:License>
    </rdf:RDF>
  </metadata>
  <path
     id="rect1-7-3"
     style="fill:#9d6e48;fill-opacity:1;stroke:none;stroke-width:3.50877"
     inkscape:label="3"
     d="m 2368.332,5 -105.2617,105.26367 52.6308,157.89453 v 52.63086 l -157.8945,-157.89453 -157.8945,-52.63086 105.2637,210.52539 210.5253,105.26367 v 157.89454 l -157.8945,-157.89454 -157.8945,-52.63085 105.2637,210.52539 210.5253,105.26367 v 157.89453 l -157.8945,-157.89453 -157.8945,-52.63282 105.2637,210.52735 210.5253,105.26367 V 1005 h 105.2637 v -52.63086 l 210.5254,-105.26367 105.2637,-210.52735 -157.8946,52.63282 -157.8945,157.89453 V 689.21094 l 210.5254,-105.26367 105.2637,-210.52539 -157.8946,52.63085 -157.8945,157.89454 V 426.05273 l 210.5254,-105.26367 105.2637,-210.52539 -157.8946,52.63086 -157.8945,157.89453 V 268.1582 l 52.6309,-157.89453 z" />
  <path
     id="rect1-7"
     style="fill:#84841b;fill-opacity:1;stroke:none;stroke-width:3.50877"
     inkscape:label="2"
     d="m 1385.8769,5 -105.2636,105.26367 52.6328,157.89453 v 52.63086 L 1175.3515,162.89453 1017.455,110.26367 1122.7187,320.78906 1333.2461,426.05273 V 583.94727 L 1175.3515,426.05273 1017.455,373.42188 1122.7187,583.94727 1333.2461,689.21094 V 847.10547 L 1175.3515,689.21094 1017.455,636.57812 1122.7187,847.10547 1333.2461,952.36914 V 1005 h 105.2617 v -52.63086 l 210.5273,-105.26367 105.2637,-210.52735 -157.8965,52.63282 -157.8945,157.89453 V 689.21094 l 210.5273,-105.26367 105.2637,-210.52539 -157.8965,52.63085 -157.8945,157.89454 V 426.05273 l 210.5273,-105.26367 105.2637,-210.52539 -157.8965,52.63086 -157.8945,157.89453 V 268.1582 l 52.6328,-157.89453 z" />
  <path
     id="rect1"
     style="fill:#52a537;fill-opacity:1;stroke:none;stroke-width:3.50877"
     inkscape:label="1"
     d="M 403.4218,5 298.1582,110.26367 350.789,268.1582 v 52.63086 L 192.8945,162.89453 35,110.26367 140.2636,320.78906 350.789,426.05273 V 583.94727 L 192.8945,426.05273 35,373.42188 140.2636,583.94727 350.789,689.21094 V 847.10547 L 192.8945,689.21094 35,636.57812 140.2636,847.10547 350.789,952.36914 V 1005 H 456.0527 V 952.36914 L 666.5781,847.10547 771.8418,636.57812 613.9472,689.21094 456.0527,847.10547 V 689.21094 L 666.5781,583.94727 771.8418,373.42188 613.9472,426.05273 456.0527,583.94727 V 426.05273 L 666.5781,320.78906 771.8418,110.26367 613.9472,162.89453 456.0527,320.78906 V 268.1582 l 52.6309,-157.89453 z" />
</svg>
