<?xml version="1.0" encoding="UTF-8" standalone="no"?>
<svg
   viewBox="35 5 2701.7539 1000"
   width="2701.7539"
   height="1000"
   version="1.1"
   id="svg7"
   sodipodi:docname="plant-sizes.svg"
   inkscape:version="1.4.2 (ebf0e940d0, 2025-05-08)"
   inkscape:export-filename="plant-sizes-reduced.png"
   inkscape:export-xdpi="35.529999"
   inkscape:export-ydpi="35.529999"
   xmlns:inkscape="http://www.inkscape.org/namespaces/inkscape"
   xmlns:sodipodi="http://sodipodi.sourceforge.net/DTD/sodipodi-0.dtd"
   xmlns="http://www.w3.org/2000/svg"
   xmlns:svg="http://www.w3.org/2000/svg"
   xmlns:rdf="http://www.w3.org/1999/02/22-rdf-syntax-ns#"
   xmlns:cc="http://creativecommons.org/ns#"
   xmlns:dc="http://purl.org/dc/elements/1.1/">
  <defs
     id="defs7" />
  <sodipodi:namedview
     id="namedview7"
     pagecolor="#ffffff"
     bordercolor="#000000"
     borderopacity="0.25"
     inkscape:showpageshadow="2"
     inkscape:pageopacity="0.0"
     inkscape:pagecheckerboard="0"
     inkscape:deskcolor="#d1d1d1"
     showguides="true"
     inkscape:zoom="0.325"
     inkscape:cx="1469.2308"
     inkscape:cy="463.07692"
     inkscape:window-width="1920"
     inkscape:window-height="1011"
     inkscape:window-x="0"
     inkscape:window-y="0"
     inkscape:window-maximized="1"
     inkscape:current-layer="svg7">
    <sodipodi:guide
       position="360.07681,736.8421"
       orientation="0,-1"
       id="guide9"
       inkscape:locked="false" />
    <sodipodi:guide
       position="421.05262,52.631584"
       orientation="0,-1"
       id="guide10"
       inkscape:locked="false" />
    <sodipodi:guide
       position="421.05262,157.89474"
       orientation="0,-1"
       id="guide11"
       inkscape:locked="false" />
    <sodipodi:guide
       position="421.05262,315.78948"
       orientation="0,-1"
       id="guide12"
       inkscape:locked="false" />
    <sodipodi:guide
       position="421.05262,421.05264"
       orientation="0,-1"
       id="guide13"
       inkscape:locked="false" />
    <sodipodi:guide
       position="421.05262,578.94737"
       orientation="0,-1"
       id="guide14"
       inkscape:locked="false" />
    <sodipodi:guide
       position="421.05262,684.21053"
       orientation="0,-1"
       id="guide15"
       inkscape:locked="false" />
    <sodipodi:guide
       position="464.86109,894.73684"
       orientation="0,-1"
       id="guide16"
       inkscape:locked="false" />
    <sodipodi:guide
       position="157.89472,842.10526"
       orientation="0,-1"
       id="guide2"
       inkscape:locked="false" />
    <sodipodi:guide
       position="-1.45e-05,368.42105"
       orientation="0,-1"
       id="guide3"
       inkscape:locked="false" />
    <sodipodi:guide
       position="-1.45e-05,631.57895"
       orientation="0,-1"
       id="guide4"
       inkscape:locked="false" />
  </sodipodi:namedview>
  <title
     id="title1">plant</title>
  <metadata
     id="metadata7">
    <rdf:RDF>
      <cc:Work
         rdf:about="">
        <dc:title>plant</dc:title>
        <cc:license
           rdf:resource="http://creativecommons.org/publicdomain/zero/1.0/" />
      </cc:Work>
      <cc:License
         rdf:about="http://creativecommons.org/publicdomain/zero/1.0/">
        <cc:permits
           rdf:resource="http://creativecommons.org/ns#Reproduction" />
        <cc:permits
           rdf:resource="http://creativecommons.org/ns#Distribution" />
        <cc:permits
           rdf:resource="http://creativecommons.org/ns#DerivativeWorks" />
      </cc:License>
    </rdf:RDF>
  </metadata>
  <g
     id="g5"
     inkscape:label="Adult"
     transform="translate(201.75394)"
     style="fill:#9d6e48;fill-opacity:1">
    <rect
       x="2113.9475"
       y="268.1579"
       width="105.26316"
       height="736.8421"
       id="rect1"
       style="fill:#9d6e48;fill-opacity:1;stroke:none;stroke-width:3.50877"
       inkscape:label="Stem" />
    <polygon
       points="90,60 45,45 75,105 135,135 135,105 "
       id="polygon5-6-6-2"
       style="fill:#9d6e48;fill-opacity:1;stroke:none"
       transform="matrix(-3.5087719,0,0,3.5087719,2692.8947,478.68421)"
       inkscape:label="Branch 6" />
    <polygon
       points="135,105 90,60 45,45 75,105 135,135 "
       id="polygon5-5-1"
       style="fill:#9d6e48;fill-opacity:1;stroke:none"
       transform="matrix(3.5087719,0,0,3.5087719,1640.2632,478.68421)"
       inkscape:label="Branch 5" />
    <polygon
       points="75,105 135,135 135,105 90,60 45,45 "
       id="polygon5-6-6"
       style="fill:#9d6e48;fill-opacity:1;stroke:none"
       transform="matrix(-3.5087719,0,0,3.5087719,2692.8947,215.52631)"
       inkscape:label="Branch 4" />
    <polygon
       points="45,45 75,105 135,135 135,105 90,60 "
       id="polygon5-5"
       style="fill:#9d6e48;fill-opacity:1;stroke:none"
       transform="matrix(3.5087719,0,0,3.5087719,1640.2632,215.52631)"
       inkscape:label="Branch 3" />
    <polygon
       points="135,105 90,60 45,45 75,105 135,135 "
       id="polygon5-6"
       style="fill:#9d6e48;fill-opacity:1;stroke:none"
       transform="matrix(-3.5087719,0,0,3.5087719,2692.8947,-47.631579)"
       inkscape:label="Branch 2" />
    <polygon
       points="135,135 135,105 90,60 45,45 75,105 "
       id="polygon5"
       style="fill:#9d6e48;fill-opacity:1;stroke:none"
       transform="matrix(3.5087719,0,0,3.5087719,1640.2632,-47.631579)"
       inkscape:label="Branch 1" />
    <polygon
       points="180,45 165,90 135,90 120,45 150,15 "
       id="polygon7"
       style="fill:#9d6e48;fill-opacity:1;stroke:none"
       transform="matrix(3.5087719,0,0,3.5087719,1640.2632,-47.631579)"
       inkscape:label="Bud" />
  </g>
  <g
     id="g4"
     inkscape:label="Maturing"
     style="fill:#2cd13b;fill-opacity:1">
    <rect
       x="350.78946"
       y="794.47369"
       width="105.26316"
       height="210.52621"
       id="rect1-9"
       style="fill:#2cd13b;fill-opacity:1;stroke:none;stroke-width:1.87551"
       inkscape:label="Stem" />
    <polygon
       points="90,60 45,45 75,105 135,135 135,105 "
       id="polygon5-6-3"
       style="fill:#2cd13b;fill-opacity:1;stroke:none"
       transform="matrix(-3.5087719,0,0,3.5087719,929.73683,478.68421)"
       inkscape:label="Branch 2" />
    <polygon
       points="135,105 90,60 45,45 75,105 135,135 "
       id="polygon5-60"
       style="fill:#2cd13b;fill-opacity:1;stroke:none"
       transform="matrix(3.5087719,0,0,3.5087719,-122.89475,478.68421)"
       inkscape:label="Branch 1" />
    <polygon
       points="135,90 120,45 150,15 180,45 165,90 "
       id="polygon7-6"
       style="fill:#2cd13b;fill-opacity:1;stroke:none"
       transform="matrix(3.5087719,0,0,3.5087719,-122.89474,478.68422)"
       inkscape:label="Bud" />
  </g>
  <g
     id="g6"
     inkscape:label="Young"
     transform="translate(79.66237)"
     style="fill:#649f41;fill-opacity:1">
    <rect
       x="1253.583"
       y="531.3158"
       width="105.26316"
       height="473.6842"
       id="rect1-6"
       style="fill:#649f41;fill-opacity:1;stroke:none;stroke-width:2.81327"
       inkscape:label="Stem" />
    <polygon
       points="90,60 45,45 75,105 135,135 135,105 "
       id="polygon5-6-6-1"
       style="fill:#649f41;fill-opacity:1;stroke:none"
       transform="matrix(-3.5087719,0,0,3.5087719,1832.5304,478.68421)"
       inkscape:label="Branch 4" />
    <polygon
       points="135,105 90,60 45,45 75,105 135,135 "
       id="polygon5-5-8"
       style="fill:#649f41;fill-opacity:1;stroke:none"
       transform="matrix(3.5087719,0,0,3.5087719,779.89879,478.68421)"
       inkscape:label="Branch 3" />
    <polygon
       points="75,105 135,135 135,105 90,60 45,45 "
       id="polygon5-6-7"
       style="fill:#649f41;fill-opacity:1;stroke:none"
       transform="matrix(-3.5087719,0,0,3.5087719,1832.5304,215.52632)"
       inkscape:label="Branch 2" />
    <polygon
       points="45,45 75,105 135,135 135,105 90,60 "
       id="polygon5-9"
       style="fill:#649f41;fill-opacity:1;stroke:none"
       transform="matrix(3.5087719,0,0,3.5087719,779.89879,215.52632)"
       inkscape:label="Branch 1" />
    <polygon
       points="120,45 150,15 180,45 165,90 135,90 "
       id="polygon7-2"
       style="fill:#649f41;fill-opacity:1;stroke:none"
       transform="matrix(3.5087719,0,0,3.5087719,779.8988,215.52632)"
       inkscape:label="Bud" />
  </g>
</svg>
